<svg max-width="929" max-height="709" viewBox="0 0 929 709" fill="none" xmlns="http://www.w3.org/2000/svg">
<g id="undraw_Posts_re_ormv 1" clip-path="url(#clip0_0:1)">
<path id="Vector" d="M364.59 146.55L367.98 147.38C366.45 147.6 364.92 147.81 363.39 148H306.85C302.61 147.46 298.393 146.793 294.2 146C268.942 141.342 244.837 131.793 223.24 117.89C209.97 109.26 197.32 98.6496 190.45 84.3996C181.12 65.0496 184.38 40.5496 197.7 23.6996C202.55 17.6202 208.521 12.5281 215.29 8.69962C216.3 8.11962 217.32 7.56962 218.36 7.04962C229.636 1.38333 242.298 -0.934745 254.85 0.369619C276.2 2.69962 295.9 15.7396 307.27 33.9596C319.84 54.0796 322.25 78.6996 324.35 102.33C328.16 90.0696 342.46 82.5796 355.01 85.2896C367.55 87.9896 377.23 99.6996 378.79 112.44C380.32 124.9 374.66 137.69 365.23 146C365.02 146.18 364.81 146.37 364.59 146.55Z" fill="#F2F2F2"/>
<path id="Vector_2" d="M320.99 148H318.16C317.88 147.776 317.663 147.483 317.53 147.15C317.37 146.77 317.22 146.38 317.05 146C308.64 125.627 298.286 106.114 286.13 87.7296C266.814 58.4661 243.153 32.3161 215.96 10.1796C215.727 10.0142 215.543 9.79002 215.425 9.53002C215.308 9.27003 215.261 8.98347 215.29 8.69958C215.347 8.32071 215.504 7.96366 215.743 7.66447C215.982 7.36529 216.296 7.13456 216.653 6.99558C217.011 6.85661 217.398 6.8143 217.777 6.87295C218.155 6.93159 218.512 7.0891 218.81 7.32958C236.429 21.6787 252.59 37.7296 267.06 55.2496C281.538 72.7481 294.284 91.6097 305.12 111.57C311.166 122.742 316.597 134.235 321.39 146C321.4 146.03 321.41 146.05 321.42 146.08C321.58 146.4 321.625 146.766 321.547 147.116C321.468 147.466 321.272 147.778 320.99 148V148Z" fill="white"/>
<path id="Vector_3" d="M558 146H19C13.9623 146.004 9.13221 148.007 5.57001 151.57C2.0078 155.132 0.00455956 159.962 0 165V223C0.00455956 228.037 2.0078 232.867 5.57001 236.43C9.13221 239.992 13.9623 241.995 19 242H558C563.038 241.995 567.868 239.992 571.43 236.43C574.992 232.867 576.995 228.037 577 223V165C576.995 159.962 574.992 155.132 571.43 151.57C567.868 148.007 563.038 146.004 558 146V146ZM575 223C574.994 227.506 573.201 231.827 570.014 235.013C566.827 238.2 562.507 239.993 558 240H19C14.4933 239.993 10.173 238.2 6.98624 235.013C3.7995 231.827 2.00638 227.506 2 223V165C2.00638 160.493 3.7995 156.173 6.98624 152.986C10.173 149.799 14.4933 148.006 19 148H558C562.507 148.006 566.827 149.799 570.014 152.986C573.201 156.173 574.994 160.493 575 165V223Z" fill="#3F3D56"/>
<path id="Vector_4" d="M558 379H19C13.9626 378.994 9.13326 376.99 5.5713 373.428C2.00935 369.866 0.00572222 365.037 0 360V302C0.00572222 296.962 2.00935 292.133 5.5713 288.571C9.13326 285.009 13.9626 283.005 19 283H558C563.037 283.005 567.867 285.009 571.429 288.571C574.991 292.133 576.994 296.962 577 302V360C576.994 365.037 574.991 369.866 571.429 373.428C567.867 376.99 563.037 378.994 558 379V379ZM19 285C14.4929 285.005 10.1718 286.797 6.98477 289.984C3.79775 293.171 2.00505 297.493 2 302V360C2.00505 364.507 3.79775 368.828 6.98477 372.015C10.1718 375.202 14.4929 376.995 19 377H558C562.507 376.995 566.828 375.202 570.015 372.015C573.202 368.828 574.995 364.507 575 360V302C574.995 297.493 573.202 293.171 570.015 289.984C566.828 286.797 562.507 285.005 558 285H19Z" fill="#3F3D56"/>
<path id="Vector_5" d="M558 516H19C13.9626 515.994 9.13326 513.99 5.5713 510.428C2.00935 506.866 0.00572222 502.037 0 497V439C0.00572222 433.962 2.00935 429.133 5.5713 425.571C9.13326 422.009 13.9626 420.005 19 420H558C563.037 420.005 567.867 422.009 571.429 425.571C574.991 429.133 576.994 433.962 577 439V497C576.994 502.037 574.991 506.866 571.429 510.428C567.867 513.99 563.037 515.994 558 516V516ZM19 422C14.4929 422.005 10.1718 423.797 6.98477 426.984C3.79775 430.171 2.00505 434.493 2 439V497C2.00505 501.507 3.79775 505.828 6.98477 509.015C10.1718 512.202 14.4929 513.995 19 514H558C562.507 513.995 566.828 512.202 570.015 509.015C573.202 505.828 574.995 501.507 575 497V439C574.995 434.493 573.202 430.171 570.015 426.984C566.828 423.797 562.507 422.005 558 422H19Z" fill="#3F3D56"/>
<path id="Vector_6" d="M107.831 226.5H75.8307C71.4561 226.495 67.2621 224.755 64.1689 221.661C61.0756 218.568 59.3356 214.374 59.3307 210V178C59.3356 173.625 61.0756 169.431 64.1689 166.338C67.2621 163.245 71.4561 161.505 75.8307 161.5H107.831C112.205 161.505 116.399 163.245 119.492 166.338C122.586 169.431 124.326 173.625 124.331 178V210C124.326 214.374 122.586 218.568 119.492 221.661C116.399 224.755 112.205 226.495 107.831 226.5V226.5Z" fill="#6C63FF"/>
<path id="Vector_7" d="M509.169 221H156.169C154.048 221 152.013 220.157 150.512 218.656C149.012 217.156 148.169 215.121 148.169 213C148.169 210.878 149.012 208.843 150.512 207.343C152.013 205.842 154.048 205 156.169 205H509.169C511.291 205 513.326 205.842 514.826 207.343C516.326 208.843 517.169 210.878 517.169 213C517.169 215.121 516.326 217.156 514.826 218.656C513.326 220.157 511.291 221 509.169 221Z" fill="#CCCCCC"/>
<path id="Vector_8" d="M436.604 221H154.396C152.699 221 151.073 220.157 149.873 218.657C148.674 217.157 148 215.122 148 213C148 210.878 148.674 208.843 149.873 207.343C151.073 205.843 152.699 205 154.396 205H436.604C438.301 205 439.927 205.843 441.127 207.343C442.326 208.843 443 210.878 443 213C443 215.122 442.326 217.157 441.127 218.657C439.927 220.157 438.301 221 436.604 221Z" fill="#9C98EC"/>
<path id="Vector_9" d="M107.831 363.5H75.8307C71.4561 363.495 67.2621 361.755 64.1689 358.661C61.0756 355.568 59.3356 351.374 59.3307 347V315C59.3356 310.625 61.0756 306.431 64.1689 303.338C67.2621 300.245 71.4561 298.505 75.8307 298.5H107.831C112.205 298.505 116.399 300.245 119.492 303.338C122.586 306.431 124.326 310.625 124.331 315V347C124.326 351.374 122.586 355.568 119.492 358.661C116.399 361.755 112.205 363.495 107.831 363.5V363.5Z" fill="#6C63FF"/>
<path id="Vector_10" d="M509.169 358H156.169C154.048 358 152.013 357.157 150.512 355.656C149.012 354.156 148.169 352.121 148.169 350C148.169 347.878 149.012 345.843 150.512 344.343C152.013 342.842 154.048 342 156.169 342H509.169C511.291 342 513.326 342.842 514.826 344.343C516.326 345.843 517.169 347.878 517.169 350C517.169 352.121 516.326 354.156 514.826 355.656C513.326 357.157 511.291 358 509.169 358Z" fill="#CCCCCC"/>
<path id="Vector_11" d="M386.71 358H153.29C151.887 358 150.541 357.157 149.549 355.657C148.557 354.157 148 352.122 148 350C148 347.878 148.557 345.843 149.549 344.343C150.541 342.843 151.887 342 153.29 342H386.71C388.113 342 389.459 342.843 390.451 344.343C391.443 345.843 392 347.878 392 350C392 352.122 391.443 354.157 390.451 355.657C389.459 357.157 388.113 358 386.71 358Z" fill="#9C98EC"/>
<path id="Vector_12" d="M107.831 500.5H75.8307C71.4561 500.495 67.2621 498.755 64.1689 495.661C61.0756 492.568 59.3356 488.374 59.3307 484V452C59.3356 447.625 61.0756 443.431 64.1689 440.338C67.2621 437.245 71.4561 435.505 75.8307 435.5H107.831C112.205 435.505 116.399 437.245 119.492 440.338C122.586 443.431 124.326 447.625 124.331 452V484C124.326 488.374 122.586 492.568 119.492 495.661C116.399 498.755 112.205 500.495 107.831 500.5V500.5Z" fill="#6C63FF"/>
<path id="Vector_13" d="M509.169 495H156.169C154.048 495 152.013 494.157 150.512 492.656C149.012 491.156 148.169 489.121 148.169 487C148.169 484.878 149.012 482.843 150.512 481.343C152.013 479.842 154.048 479 156.169 479H509.169C511.291 479 513.326 479.842 514.826 481.343C516.326 482.843 517.169 484.878 517.169 487C517.169 489.121 516.326 491.156 514.826 492.656C513.326 494.157 511.291 495 509.169 495Z" fill="#CCCCCC"/>
<path id="Vector_14" d="M403.341 495H153.659C152.158 495 150.719 494.157 149.657 492.657C148.596 491.157 148 489.122 148 487C148 484.878 148.596 482.843 149.657 481.343C150.719 479.843 152.158 479 153.659 479H403.341C404.842 479 406.281 479.843 407.343 481.343C408.404 482.843 409 484.878 409 487C409 489.122 408.404 491.157 407.343 492.657C406.281 494.157 404.842 495 403.341 495Z" fill="#9C98EC"/>
<g id="man">
<path id="Vector_15" d="M801.51 424.487C831.068 424.487 855.029 400.525 855.029 370.967C855.029 341.41 831.068 317.448 801.51 317.448C771.952 317.448 747.991 341.41 747.991 370.967C747.991 400.525 771.952 424.487 801.51 424.487Z" fill="#6C63FF"/>
<path id="Vector_16" d="M805.443 701.813V578.799C805.445 577.075 806.13 575.423 807.349 574.205C808.567 572.986 810.219 572.301 811.943 572.299H826.702C828.425 572.301 830.077 572.986 831.296 574.205C832.515 575.423 833.2 577.075 833.202 578.799V701.813C833.2 703.536 832.515 705.189 831.296 706.407C830.077 707.626 828.425 708.311 826.702 708.313H811.943C810.219 708.311 808.567 707.626 807.349 706.407C806.13 705.189 805.445 703.536 805.443 701.813V701.813Z" fill="#2F2E41"/>
<path id="Vector_17" d="M774.25 701.813V578.799C774.252 577.075 774.938 575.423 776.156 574.205C777.375 572.986 779.027 572.301 780.75 572.299H795.51C797.233 572.301 798.885 572.986 800.104 574.205C801.323 575.423 802.008 577.075 802.01 578.799V701.813C802.008 703.536 801.323 705.189 800.104 706.407C798.885 707.626 797.233 708.311 795.51 708.313H780.75C779.027 708.311 777.375 707.626 776.156 706.407C774.938 705.189 774.252 703.536 774.25 701.813Z" fill="#2F2E41"/>
<path id="Vector_18" d="M835.65 593.26H768.587C766.731 593.258 764.952 592.52 763.64 591.208C762.328 589.895 761.589 588.116 761.587 586.26V477.316C761.587 466.567 765.857 456.257 773.458 448.656C781.06 441.055 791.369 436.785 802.118 436.785C812.868 436.785 823.177 441.055 830.778 448.656C838.379 456.257 842.65 466.567 842.65 477.316V586.26C842.647 588.116 841.909 589.895 840.597 591.208C839.285 592.52 837.505 593.258 835.65 593.26V593.26Z" fill="#2F2E41"/>
<path id="Vector_19" d="M756.314 394.626L756.37 392.626C752.649 392.522 749.369 392.289 746.904 390.488C746.205 389.948 745.631 389.265 745.22 388.483C744.809 387.702 744.571 386.841 744.523 385.96C744.479 385.421 744.561 384.88 744.761 384.378C744.961 383.876 745.274 383.427 745.676 383.065C747.312 381.683 749.945 382.131 751.864 383.01L753.518 383.769L750.345 360.579L748.364 360.85L751.063 380.577C748.455 379.81 746.039 380.14 744.385 381.538C743.749 382.093 743.251 382.787 742.928 383.566C742.605 384.345 742.467 385.189 742.524 386.03C742.583 387.214 742.899 388.372 743.452 389.421C744.005 390.47 744.78 391.385 745.724 392.103C748.891 394.418 753.007 394.533 756.314 394.626Z" fill="#2F2E41"/>
<path id="Vector_20" d="M772.564 362.552H761.793V364.552H772.564V362.552Z" fill="#2F2E41"/>
<path id="Vector_21" d="M822.682 586.185C822.052 585.608 821.542 584.913 821.183 584.138C820.824 583.363 820.622 582.525 820.59 581.671L815.494 458.763C815.459 457.911 815.591 457.059 815.885 456.258C816.179 455.456 816.627 454.72 817.205 454.092C817.784 453.464 818.48 452.956 819.254 452.597C820.028 452.238 820.866 452.035 821.719 452L836.466 451.388C838.188 451.319 839.867 451.935 841.135 453.102C842.403 454.269 843.156 455.892 843.229 457.613L848.325 580.522C848.394 582.244 847.778 583.923 846.611 585.191C845.444 586.459 843.821 587.212 842.1 587.286L827.353 587.897C826.883 587.917 826.412 587.886 825.948 587.805C824.726 587.59 823.592 587.028 822.682 586.185V586.185Z" fill="#6C63FF"/>
<path id="Vector_22" d="M841.5 503H817.5C815.777 502.998 814.125 502.312 812.906 501.094C811.687 499.875 811.002 498.223 811 496.5V462.5C811 457.593 812.949 452.888 816.419 449.418C819.888 445.949 824.593 444 829.5 444C834.407 444 839.112 445.949 842.581 449.418C846.051 452.888 848 457.593 848 462.5V496.5C847.998 498.223 847.313 499.875 846.094 501.094C844.875 502.312 843.223 502.998 841.5 503Z" fill="#2F2E41"/>
<path id="Vector_23" d="M687.379 548.548L677.97 537.177C676.873 535.848 676.348 534.138 676.51 532.422C676.672 530.706 677.508 529.125 678.835 528.025L773.616 449.609C774.944 448.511 776.654 447.985 778.37 448.147C780.086 448.309 781.667 449.146 782.767 450.473L792.175 461.845C792.719 462.503 793.129 463.261 793.38 464.077C793.631 464.893 793.719 465.75 793.638 466.6C793.558 467.45 793.311 468.276 792.912 469.03C792.512 469.784 791.968 470.453 791.311 470.997L696.531 549.412C695.389 550.356 693.96 550.882 692.479 550.904C690.999 550.925 689.555 550.441 688.386 549.531C688.016 549.241 687.679 548.911 687.379 548.548V548.548Z" fill="#6C63FF"/>
<path id="Vector_24" d="M757.275 497.472L742.072 478.902C740.982 477.567 740.466 475.854 740.637 474.14C740.808 472.425 741.652 470.848 742.984 469.755L769.292 448.217C771.172 446.677 773.337 445.523 775.663 444.82C777.989 444.117 780.43 443.879 782.848 444.12C785.266 444.361 787.613 445.076 789.754 446.224C791.896 447.371 793.79 448.93 795.329 450.81C796.869 452.69 798.022 454.855 798.725 457.181C799.427 459.507 799.664 461.949 799.423 464.366C799.182 466.784 798.467 469.131 797.318 471.272C796.17 473.413 794.611 475.308 792.731 476.846L766.422 498.384C765.088 499.474 763.375 499.991 761.66 499.82C759.946 499.649 758.369 498.804 757.275 497.472Z" fill="#2F2E41"/>
<path id="Path 22" d="M692.686 501.988L692.417 502.224L685.953 494.839C685.461 494.278 684.864 493.819 684.196 493.488C683.527 493.158 682.8 492.962 682.055 492.913C681.311 492.863 680.564 492.961 679.858 493.2C679.151 493.439 678.499 493.815 677.937 494.306L662.291 508.001C661.157 508.993 660.464 510.395 660.364 511.898C660.264 513.402 660.765 514.883 661.758 516.017L697.219 556.532C697.71 557.093 698.307 557.552 698.976 557.883C699.645 558.213 700.372 558.409 701.116 558.458C701.861 558.508 702.607 558.41 703.314 558.171C704.021 557.932 704.673 557.556 705.234 557.065L720.881 543.37C722.015 542.378 722.708 540.976 722.808 539.473C722.907 537.969 722.406 536.488 721.414 535.354L697.017 507.481L697.287 507.245L692.686 501.988Z" fill="#3F3D56"/>
<path id="Path 23" d="M679.666 496.666L677.718 498.371C678 498.512 678.243 498.72 678.425 498.977C678.607 499.235 678.724 499.533 678.764 499.845C678.804 500.158 678.766 500.476 678.654 500.771C678.543 501.065 678.36 501.328 678.123 501.536L669.573 509.019C669.336 509.227 669.051 509.373 668.744 509.445C668.437 509.516 668.117 509.511 667.813 509.43C667.508 509.349 667.228 509.195 666.997 508.98C666.767 508.765 666.592 508.497 666.489 508.199L664.67 509.791C664.27 510.141 663.943 510.566 663.708 511.043C663.472 511.519 663.333 512.037 663.298 512.567C663.262 513.098 663.332 513.63 663.502 514.133C663.672 514.636 663.94 515.101 664.29 515.501L698.065 554.089C698.772 554.897 699.771 555.391 700.842 555.462C701.912 555.533 702.968 555.176 703.775 554.469L718.771 541.344C719.579 540.637 720.072 539.638 720.144 538.567C720.215 537.497 719.858 536.441 719.151 535.634V535.634L685.376 497.045C684.669 496.238 683.67 495.744 682.599 495.673C681.529 495.602 680.474 495.959 679.666 496.666V496.666Z" fill="white"/>
<path id="Vector_25" d="M814.927 380.029C817.714 375.373 819.895 370.243 818.86 364.727C817.936 359.801 814.391 355.964 809.293 355.461C806.224 355.158 803.169 355.977 800.17 356.511C797.713 356.943 795.215 357.104 792.722 356.993C787.707 356.765 782.79 355.519 778.271 353.329C773.685 351.183 769.611 348.08 766.324 344.228C763.037 340.376 760.613 335.865 759.215 330.998C756.173 319.924 758.432 307.349 765.655 298.335L763.148 297.673L766.412 308.398C766.476 308.618 766.589 308.82 766.742 308.99C766.895 309.161 767.085 309.294 767.297 309.38C767.509 309.466 767.738 309.503 767.966 309.488C768.195 309.474 768.417 309.407 768.616 309.294C774.532 305.556 781.146 303.059 788.057 301.954C794.967 300.849 802.03 301.16 808.817 302.867C812.651 303.83 816.355 305.255 819.848 307.11C821.552 308.016 823.069 305.427 821.362 304.519C814.803 301.098 807.618 299.042 800.241 298.477C792.865 297.912 785.451 298.849 778.447 301.232C774.458 302.591 770.649 304.429 767.102 306.704L769.305 307.6L766.041 296.876C765.968 296.625 765.832 296.398 765.645 296.215C765.458 296.033 765.227 295.902 764.975 295.835C764.722 295.769 764.457 295.768 764.204 295.835C763.952 295.901 763.721 296.032 763.534 296.214C760.174 300.476 757.712 305.374 756.296 310.613C754.879 315.851 754.538 321.323 755.293 326.697C756.022 331.994 757.863 337.077 760.694 341.612C763.525 346.148 767.283 350.034 771.721 353.016C776.155 356.008 781.139 358.092 786.383 359.147C791.628 360.201 797.029 360.205 802.275 359.158C805.211 358.593 808.54 357.785 811.421 359.015C812.466 359.519 813.387 360.246 814.119 361.146C814.85 362.047 815.375 363.097 815.655 364.222C817.287 369.754 814.51 375.006 811.673 379.606L814.927 380.029Z" fill="#2F2E41"/>
<path id="Vector_26" d="M788.116 485.252L788.079 485.252C787.52 485.25 786.978 485.058 786.542 484.708C786.106 484.358 785.803 483.87 785.68 483.324L785.876 441.656C785.749 441.092 785.819 440.502 786.074 439.983C786.328 439.464 786.753 439.048 787.276 438.803C794.53 435.396 802.025 434.938 810.19 437.405C810.814 437.591 811.342 438.012 811.661 438.58C811.979 439.148 812.064 439.818 811.896 440.448L790.531 483.392C790.395 483.928 790.083 484.402 789.646 484.74C789.208 485.077 788.669 485.258 788.116 485.252V485.252Z" fill="#CCCCCC"/>
<path id="Vector_27" d="M927.791 709H679.791C679.526 709 679.272 708.894 679.084 708.707C678.897 708.519 678.791 708.265 678.791 708C678.791 707.734 678.897 707.48 679.084 707.293C679.272 707.105 679.526 707 679.791 707H927.791C928.057 707 928.311 707.105 928.498 707.293C928.686 707.48 928.791 707.734 928.791 708C928.791 708.265 928.686 708.519 928.498 708.707C928.311 708.894 928.057 709 927.791 709Z" fill="#3F3D56"/>
</g>
<path id="Vector_28" d="M583 667H345C342.878 667 340.843 666.157 339.343 664.657C337.843 663.157 337 661.122 337 659C337 656.878 337.843 654.843 339.343 653.343C340.843 651.843 342.878 651 345 651H583C585.122 651 587.157 651.843 588.657 653.343C590.157 654.843 591 656.878 591 659C591 661.122 590.157 663.157 588.657 664.657C587.157 666.157 585.122 667 583 667Z" fill="#CCCCCC"/>
<path id="Vector_29" d="M671 604H433C430.878 604 428.843 603.157 427.343 601.657C425.843 600.157 425 598.122 425 596C425 593.878 425.843 591.843 427.343 590.343C428.843 588.843 430.878 588 433 588H671C673.122 588 675.157 588.843 676.657 590.343C678.157 591.843 679 593.878 679 596C679 598.122 678.157 600.157 676.657 601.657C675.157 603.157 673.122 604 671 604Z" fill="#CCCCCC"/>
</g>
<path id="Backend" d="M159.008 327.192C158.128 327.192 157.24 327.16 156.344 327.096C155.448 327.048 154.664 326.936 153.992 326.76V310.608C154.344 310.544 154.72 310.488 155.12 310.44C155.52 310.376 155.928 310.328 156.344 310.296C156.76 310.264 157.168 310.24 157.568 310.224C157.984 310.208 158.376 310.2 158.744 310.2C159.752 310.2 160.688 310.28 161.552 310.44C162.416 310.584 163.16 310.832 163.784 311.184C164.424 311.536 164.92 312 165.272 312.576C165.624 313.152 165.8 313.864 165.8 314.712C165.8 315.496 165.608 316.168 165.224 316.728C164.856 317.288 164.336 317.736 163.664 318.072C164.672 318.408 165.416 318.904 165.896 319.56C166.376 320.216 166.616 321.048 166.616 322.056C166.616 323.768 165.992 325.056 164.744 325.92C163.496 326.768 161.584 327.192 159.008 327.192ZM156.968 319.512V324.576C157.304 324.608 157.664 324.632 158.048 324.648C158.432 324.664 158.784 324.672 159.104 324.672C159.728 324.672 160.304 324.632 160.832 324.552C161.376 324.472 161.84 324.336 162.224 324.144C162.624 323.936 162.936 323.664 163.16 323.328C163.4 322.992 163.52 322.56 163.52 322.032C163.52 321.088 163.176 320.432 162.488 320.064C161.8 319.696 160.848 319.512 159.632 319.512H156.968ZM156.968 317.136H159.104C160.256 317.136 161.16 316.976 161.816 316.656C162.472 316.32 162.8 315.728 162.8 314.88C162.8 314.08 162.456 313.512 161.768 313.176C161.096 312.84 160.216 312.672 159.128 312.672C158.664 312.672 158.248 312.68 157.88 312.696C157.528 312.712 157.224 312.736 156.968 312.768V317.136ZM174.037 324.96C174.933 324.96 175.613 324.912 176.077 324.816V321.6C175.917 321.552 175.685 321.504 175.381 321.456C175.077 321.408 174.741 321.384 174.373 321.384C174.053 321.384 173.725 321.408 173.389 321.456C173.069 321.504 172.773 321.592 172.501 321.72C172.245 321.848 172.037 322.032 171.877 322.272C171.717 322.496 171.637 322.784 171.637 323.136C171.637 323.824 171.853 324.304 172.285 324.576C172.717 324.832 173.301 324.96 174.037 324.96ZM173.797 314.136C174.757 314.136 175.565 314.256 176.221 314.496C176.877 314.736 177.397 315.072 177.781 315.504C178.181 315.936 178.461 316.464 178.621 317.088C178.797 317.696 178.885 318.368 178.885 319.104V326.712C178.437 326.808 177.757 326.92 176.845 327.048C175.949 327.192 174.933 327.264 173.797 327.264C173.045 327.264 172.357 327.192 171.733 327.048C171.109 326.904 170.573 326.672 170.125 326.352C169.693 326.032 169.349 325.616 169.093 325.104C168.853 324.592 168.733 323.96 168.733 323.208C168.733 322.488 168.869 321.88 169.141 321.384C169.429 320.888 169.813 320.488 170.293 320.184C170.773 319.864 171.325 319.64 171.949 319.512C172.589 319.368 173.253 319.296 173.941 319.296C174.261 319.296 174.597 319.32 174.949 319.368C175.301 319.4 175.677 319.464 176.077 319.56V319.08C176.077 318.744 176.037 318.424 175.957 318.12C175.877 317.816 175.733 317.552 175.525 317.328C175.333 317.088 175.069 316.904 174.733 316.776C174.413 316.648 174.005 316.584 173.509 316.584C172.837 316.584 172.221 316.632 171.661 316.728C171.101 316.824 170.645 316.936 170.293 317.064L169.933 314.712C170.301 314.584 170.837 314.456 171.541 314.328C172.245 314.2 172.997 314.136 173.797 314.136ZM181.746 320.736C181.746 319.808 181.89 318.944 182.178 318.144C182.466 317.328 182.874 316.624 183.402 316.032C183.946 315.44 184.602 314.976 185.37 314.64C186.138 314.304 187.002 314.136 187.962 314.136C189.146 314.136 190.266 314.352 191.322 314.784L190.698 317.16C190.362 317.016 189.978 316.896 189.546 316.8C189.13 316.704 188.682 316.656 188.202 316.656C187.066 316.656 186.202 317.016 185.61 317.736C185.018 318.44 184.722 319.44 184.722 320.736C184.722 321.984 185.002 322.976 185.562 323.712C186.122 324.432 187.066 324.792 188.394 324.792C188.89 324.792 189.378 324.744 189.858 324.648C190.338 324.552 190.754 324.432 191.106 324.288L191.514 326.688C191.194 326.848 190.706 326.992 190.05 327.12C189.41 327.248 188.746 327.312 188.058 327.312C186.986 327.312 186.05 327.152 185.25 326.832C184.466 326.496 183.81 326.04 183.282 325.464C182.77 324.872 182.386 324.176 182.13 323.376C181.874 322.56 181.746 321.68 181.746 320.736ZM196.666 319.344C197.034 318.96 197.426 318.552 197.842 318.12C198.258 317.672 198.666 317.232 199.066 316.8C199.466 316.352 199.842 315.928 200.194 315.528C200.562 315.112 200.874 314.752 201.13 314.448H204.562C203.762 315.344 202.914 316.272 202.018 317.232C201.138 318.192 200.25 319.128 199.354 320.04C199.834 320.44 200.338 320.928 200.866 321.504C201.394 322.064 201.906 322.664 202.402 323.304C202.898 323.944 203.362 324.584 203.794 325.224C204.226 325.864 204.586 326.456 204.874 327H201.514C201.226 326.504 200.89 325.984 200.506 325.44C200.138 324.896 199.738 324.368 199.306 323.856C198.874 323.344 198.434 322.864 197.986 322.416C197.538 321.952 197.098 321.56 196.666 321.24V327H193.762V308.856L196.666 308.376V319.344ZM205.722 320.784C205.722 319.68 205.882 318.712 206.202 317.88C206.538 317.048 206.978 316.36 207.522 315.816C208.066 315.256 208.69 314.84 209.394 314.568C210.098 314.28 210.818 314.136 211.554 314.136C213.282 314.136 214.626 314.672 215.586 315.744C216.562 316.816 217.05 318.416 217.05 320.544C217.05 320.704 217.042 320.888 217.026 321.096C217.026 321.288 217.018 321.464 217.002 321.624H208.722C208.802 322.632 209.154 323.416 209.778 323.976C210.418 324.52 211.338 324.792 212.538 324.792C213.242 324.792 213.882 324.728 214.458 324.6C215.05 324.472 215.514 324.336 215.85 324.192L216.234 326.568C216.074 326.648 215.85 326.736 215.562 326.832C215.29 326.912 214.97 326.984 214.602 327.048C214.25 327.128 213.866 327.192 213.45 327.24C213.034 327.288 212.61 327.312 212.178 327.312C211.074 327.312 210.114 327.152 209.298 326.832C208.482 326.496 207.81 326.04 207.282 325.464C206.754 324.872 206.362 324.184 206.106 323.4C205.85 322.6 205.722 321.728 205.722 320.784ZM214.146 319.488C214.146 319.088 214.09 318.712 213.978 318.36C213.866 317.992 213.698 317.68 213.474 317.424C213.266 317.152 213.002 316.944 212.682 316.8C212.378 316.64 212.01 316.56 211.578 316.56C211.13 316.56 210.738 316.648 210.402 316.824C210.066 316.984 209.778 317.2 209.538 317.472C209.314 317.744 209.138 318.056 209.01 318.408C208.882 318.76 208.794 319.12 208.746 319.488H214.146ZM220.129 314.856C220.689 314.696 221.417 314.544 222.313 314.4C223.209 314.256 224.201 314.184 225.289 314.184C226.313 314.184 227.169 314.328 227.857 314.616C228.545 314.888 229.089 315.28 229.489 315.792C229.905 316.288 230.193 316.896 230.353 317.616C230.529 318.32 230.617 319.096 230.617 319.944V327H227.713V320.4C227.713 319.728 227.665 319.16 227.569 318.696C227.489 318.216 227.345 317.832 227.137 317.544C226.945 317.24 226.673 317.024 226.321 316.896C225.985 316.752 225.569 316.68 225.073 316.68C224.705 316.68 224.321 316.704 223.921 316.752C223.521 316.8 223.225 316.84 223.033 316.872V327H220.129V314.856ZM236.448 320.688C236.448 321.968 236.752 322.976 237.36 323.712C237.968 324.432 238.808 324.792 239.88 324.792C240.344 324.792 240.736 324.776 241.056 324.744C241.392 324.696 241.664 324.648 241.872 324.6V317.4C241.616 317.224 241.272 317.064 240.84 316.92C240.424 316.76 239.976 316.68 239.496 316.68C238.44 316.68 237.664 317.04 237.168 317.76C236.688 318.48 236.448 319.456 236.448 320.688ZM244.776 326.616C244.2 326.792 243.472 326.952 242.592 327.096C241.728 327.24 240.816 327.312 239.856 327.312C238.864 327.312 237.976 327.16 237.192 326.856C236.408 326.552 235.736 326.12 235.176 325.56C234.632 324.984 234.208 324.296 233.904 323.496C233.616 322.68 233.472 321.768 233.472 320.76C233.472 319.768 233.592 318.872 233.832 318.072C234.088 317.256 234.456 316.56 234.936 315.984C235.416 315.408 236 314.968 236.688 314.664C237.376 314.344 238.168 314.184 239.064 314.184C239.672 314.184 240.208 314.256 240.672 314.4C241.136 314.544 241.536 314.704 241.872 314.88V308.856L244.776 308.376V326.616Z" fill="black"/>
<path id="Frontend" d="M153.992 190V173.368H164.504V175.936H157.016V180.184H163.664V182.752H157.016V190H153.992ZM173.609 180.064C173.369 179.984 173.033 179.904 172.601 179.824C172.185 179.728 171.697 179.68 171.137 179.68C170.817 179.68 170.473 179.712 170.105 179.776C169.753 179.84 169.505 179.896 169.361 179.944V190H166.457V178.048C167.017 177.84 167.713 177.648 168.545 177.472C169.393 177.28 170.329 177.184 171.353 177.184C171.545 177.184 171.769 177.2 172.025 177.232C172.281 177.248 172.537 177.28 172.793 177.328C173.049 177.36 173.297 177.408 173.537 177.472C173.777 177.52 173.969 177.568 174.113 177.616L173.609 180.064ZM187.489 183.712C187.489 184.704 187.345 185.608 187.057 186.424C186.769 187.24 186.361 187.936 185.833 188.512C185.305 189.088 184.665 189.536 183.913 189.856C183.177 190.176 182.361 190.336 181.465 190.336C180.569 190.336 179.753 190.176 179.017 189.856C178.281 189.536 177.649 189.088 177.121 188.512C176.593 187.936 176.177 187.24 175.873 186.424C175.585 185.608 175.441 184.704 175.441 183.712C175.441 182.72 175.585 181.824 175.873 181.024C176.177 180.208 176.593 179.512 177.121 178.936C177.665 178.36 178.305 177.92 179.041 177.616C179.777 177.296 180.585 177.136 181.465 177.136C182.345 177.136 183.153 177.296 183.889 177.616C184.641 177.92 185.281 178.36 185.809 178.936C186.337 179.512 186.745 180.208 187.033 181.024C187.337 181.824 187.489 182.72 187.489 183.712ZM184.513 183.712C184.513 182.464 184.241 181.48 183.697 180.76C183.169 180.024 182.425 179.656 181.465 179.656C180.505 179.656 179.753 180.024 179.209 180.76C178.681 181.48 178.417 182.464 178.417 183.712C178.417 184.976 178.681 185.976 179.209 186.712C179.753 187.448 180.505 187.816 181.465 187.816C182.425 187.816 183.169 187.448 183.697 186.712C184.241 185.976 184.513 184.976 184.513 183.712ZM190.481 177.856C191.041 177.696 191.769 177.544 192.665 177.4C193.561 177.256 194.553 177.184 195.641 177.184C196.665 177.184 197.521 177.328 198.209 177.616C198.897 177.888 199.441 178.28 199.841 178.792C200.257 179.288 200.545 179.896 200.705 180.616C200.881 181.32 200.969 182.096 200.969 182.944V190H198.065V183.4C198.065 182.728 198.017 182.16 197.921 181.696C197.841 181.216 197.697 180.832 197.489 180.544C197.297 180.24 197.025 180.024 196.673 179.896C196.337 179.752 195.921 179.68 195.425 179.68C195.057 179.68 194.673 179.704 194.273 179.752C193.873 179.8 193.577 179.84 193.385 179.872V190H190.481V177.856ZM204.376 174.136L207.28 173.656V177.448H211.744V179.872H207.28V184.984C207.28 185.992 207.44 186.712 207.76 187.144C208.08 187.576 208.624 187.792 209.392 187.792C209.92 187.792 210.384 187.736 210.784 187.624C211.2 187.512 211.528 187.408 211.768 187.312L212.248 189.616C211.912 189.76 211.472 189.904 210.928 190.048C210.384 190.208 209.744 190.288 209.008 190.288C208.112 190.288 207.36 190.168 206.752 189.928C206.16 189.688 205.688 189.344 205.336 188.896C204.984 188.432 204.736 187.88 204.592 187.24C204.448 186.584 204.376 185.84 204.376 185.008V174.136ZM213.644 183.784C213.644 182.68 213.804 181.712 214.124 180.88C214.46 180.048 214.9 179.36 215.444 178.816C215.988 178.256 216.612 177.84 217.316 177.568C218.02 177.28 218.74 177.136 219.476 177.136C221.204 177.136 222.548 177.672 223.508 178.744C224.484 179.816 224.972 181.416 224.972 183.544C224.972 183.704 224.964 183.888 224.948 184.096C224.948 184.288 224.94 184.464 224.924 184.624H216.644C216.724 185.632 217.076 186.416 217.7 186.976C218.34 187.52 219.26 187.792 220.46 187.792C221.164 187.792 221.804 187.728 222.38 187.6C222.972 187.472 223.436 187.336 223.772 187.192L224.156 189.568C223.996 189.648 223.772 189.736 223.484 189.832C223.212 189.912 222.892 189.984 222.524 190.048C222.172 190.128 221.788 190.192 221.372 190.24C220.956 190.288 220.532 190.312 220.1 190.312C218.996 190.312 218.036 190.152 217.22 189.832C216.404 189.496 215.732 189.04 215.204 188.464C214.676 187.872 214.284 187.184 214.028 186.4C213.772 185.6 213.644 184.728 213.644 183.784ZM222.068 182.488C222.068 182.088 222.012 181.712 221.9 181.36C221.788 180.992 221.62 180.68 221.396 180.424C221.188 180.152 220.924 179.944 220.604 179.8C220.3 179.64 219.932 179.56 219.5 179.56C219.052 179.56 218.66 179.648 218.324 179.824C217.988 179.984 217.7 180.2 217.46 180.472C217.236 180.744 217.06 181.056 216.932 181.408C216.804 181.76 216.716 182.12 216.668 182.488H222.068ZM228.051 177.856C228.611 177.696 229.339 177.544 230.235 177.4C231.131 177.256 232.123 177.184 233.211 177.184C234.235 177.184 235.091 177.328 235.779 177.616C236.467 177.888 237.011 178.28 237.411 178.792C237.827 179.288 238.115 179.896 238.275 180.616C238.451 181.32 238.539 182.096 238.539 182.944V190H235.635V183.4C235.635 182.728 235.587 182.16 235.491 181.696C235.411 181.216 235.267 180.832 235.059 180.544C234.867 180.24 234.595 180.024 234.243 179.896C233.907 179.752 233.491 179.68 232.995 179.68C232.627 179.68 232.243 179.704 231.843 179.752C231.443 179.8 231.147 179.84 230.955 179.872V190H228.051V177.856ZM244.37 183.688C244.37 184.968 244.674 185.976 245.282 186.712C245.89 187.432 246.73 187.792 247.802 187.792C248.266 187.792 248.658 187.776 248.978 187.744C249.314 187.696 249.586 187.648 249.794 187.6V180.4C249.538 180.224 249.194 180.064 248.762 179.92C248.346 179.76 247.898 179.68 247.418 179.68C246.362 179.68 245.586 180.04 245.09 180.76C244.61 181.48 244.37 182.456 244.37 183.688ZM252.698 189.616C252.122 189.792 251.394 189.952 250.514 190.096C249.65 190.24 248.738 190.312 247.778 190.312C246.786 190.312 245.898 190.16 245.114 189.856C244.33 189.552 243.658 189.12 243.098 188.56C242.554 187.984 242.13 187.296 241.826 186.496C241.538 185.68 241.394 184.768 241.394 183.76C241.394 182.768 241.514 181.872 241.754 181.072C242.01 180.256 242.378 179.56 242.858 178.984C243.338 178.408 243.922 177.968 244.61 177.664C245.298 177.344 246.09 177.184 246.986 177.184C247.594 177.184 248.13 177.256 248.594 177.4C249.058 177.544 249.458 177.704 249.794 177.88V171.856L252.698 171.376V189.616ZM256.867 194.44H253.891L262.003 171.208H264.931L256.867 194.44ZM269.539 187.504C269.715 187.52 269.947 187.536 270.235 187.552C270.523 187.552 270.915 187.552 271.411 187.552C273.443 187.552 274.955 187.04 275.947 186.016C276.955 184.976 277.459 183.528 277.459 181.672C277.459 179.784 276.971 178.336 275.995 177.328C275.019 176.32 273.507 175.816 271.459 175.816C270.563 175.816 269.923 175.84 269.539 175.888V187.504ZM280.627 181.672C280.627 183.112 280.403 184.368 279.955 185.44C279.507 186.496 278.867 187.384 278.035 188.104C277.219 188.808 276.227 189.336 275.059 189.688C273.907 190.024 272.627 190.192 271.219 190.192C270.547 190.192 269.787 190.16 268.939 190.096C268.091 190.048 267.283 189.936 266.515 189.76V173.608C267.283 173.432 268.099 173.32 268.963 173.272C269.827 173.224 270.595 173.2 271.267 173.2C272.659 173.2 273.931 173.368 275.083 173.704C276.235 174.024 277.219 174.536 278.035 175.24C278.867 175.928 279.507 176.808 279.955 177.88C280.403 178.936 280.627 180.2 280.627 181.672ZM283.09 183.784C283.09 182.68 283.25 181.712 283.57 180.88C283.906 180.048 284.346 179.36 284.89 178.816C285.434 178.256 286.058 177.84 286.762 177.568C287.466 177.28 288.186 177.136 288.922 177.136C290.65 177.136 291.994 177.672 292.954 178.744C293.93 179.816 294.418 181.416 294.418 183.544C294.418 183.704 294.41 183.888 294.394 184.096C294.394 184.288 294.386 184.464 294.37 184.624H286.09C286.17 185.632 286.522 186.416 287.146 186.976C287.786 187.52 288.706 187.792 289.906 187.792C290.61 187.792 291.25 187.728 291.826 187.6C292.418 187.472 292.882 187.336 293.218 187.192L293.602 189.568C293.442 189.648 293.218 189.736 292.93 189.832C292.658 189.912 292.338 189.984 291.97 190.048C291.618 190.128 291.234 190.192 290.818 190.24C290.402 190.288 289.978 190.312 289.546 190.312C288.442 190.312 287.482 190.152 286.666 189.832C285.85 189.496 285.178 189.04 284.65 188.464C284.122 187.872 283.73 187.184 283.474 186.4C283.218 185.6 283.09 184.728 283.09 183.784ZM291.514 182.488C291.514 182.088 291.458 181.712 291.346 181.36C291.234 180.992 291.066 180.68 290.842 180.424C290.634 180.152 290.37 179.944 290.05 179.8C289.746 179.64 289.378 179.56 288.946 179.56C288.498 179.56 288.106 179.648 287.77 179.824C287.434 179.984 287.146 180.2 286.906 180.472C286.682 180.744 286.506 181.056 286.378 181.408C286.25 181.76 286.162 182.12 286.114 182.488H291.514ZM300.64 187.912C301.408 187.912 301.968 187.824 302.32 187.648C302.672 187.456 302.848 187.136 302.848 186.688C302.848 186.272 302.656 185.928 302.272 185.656C301.904 185.384 301.288 185.088 300.424 184.768C299.896 184.576 299.408 184.376 298.96 184.168C298.528 183.944 298.152 183.688 297.832 183.4C297.512 183.112 297.256 182.768 297.064 182.368C296.888 181.952 296.8 181.448 296.8 180.856C296.8 179.704 297.224 178.8 298.072 178.144C298.92 177.472 300.072 177.136 301.528 177.136C302.264 177.136 302.968 177.208 303.64 177.352C304.312 177.48 304.816 177.608 305.152 177.736L304.624 180.088C304.304 179.944 303.896 179.816 303.4 179.704C302.904 179.576 302.328 179.512 301.672 179.512C301.08 179.512 300.6 179.616 300.232 179.824C299.864 180.016 299.68 180.32 299.68 180.736C299.68 180.944 299.712 181.128 299.776 181.288C299.856 181.448 299.984 181.6 300.16 181.744C300.336 181.872 300.568 182.008 300.856 182.152C301.144 182.28 301.496 182.416 301.912 182.56C302.6 182.816 303.184 183.072 303.664 183.328C304.144 183.568 304.536 183.848 304.84 184.168C305.16 184.472 305.392 184.824 305.536 185.224C305.68 185.624 305.752 186.104 305.752 186.664C305.752 187.864 305.304 188.776 304.408 189.4C303.528 190.008 302.264 190.312 300.616 190.312C299.512 190.312 298.624 190.216 297.952 190.024C297.28 189.848 296.808 189.704 296.536 189.592L297.04 187.168C297.472 187.344 297.984 187.512 298.576 187.672C299.184 187.832 299.872 187.912 300.64 187.912ZM311.393 190H308.489V177.448H311.393V190ZM311.705 173.776C311.705 174.32 311.529 174.752 311.177 175.072C310.825 175.392 310.409 175.552 309.929 175.552C309.433 175.552 309.009 175.392 308.657 175.072C308.305 174.752 308.129 174.32 308.129 173.776C308.129 173.216 308.305 172.776 308.657 172.456C309.009 172.136 309.433 171.976 309.929 171.976C310.409 171.976 310.825 172.136 311.177 172.456C311.529 172.776 311.705 173.216 311.705 173.776ZM317.378 183.4C317.378 184.632 317.642 185.536 318.17 186.112C318.714 186.672 319.41 186.952 320.258 186.952C320.722 186.952 321.154 186.888 321.554 186.76C321.97 186.632 322.306 186.48 322.562 186.304V179.8C322.354 179.752 322.098 179.712 321.794 179.68C321.49 179.632 321.106 179.608 320.642 179.608C319.586 179.608 318.778 179.96 318.218 180.664C317.658 181.352 317.378 182.264 317.378 183.4ZM325.466 188.728C325.466 190.728 324.954 192.192 323.93 193.12C322.922 194.048 321.37 194.512 319.274 194.512C318.506 194.512 317.754 194.448 317.018 194.32C316.298 194.192 315.642 194.024 315.05 193.816L315.578 191.344C316.074 191.552 316.634 191.72 317.258 191.848C317.898 191.976 318.586 192.04 319.322 192.04C320.49 192.04 321.322 191.8 321.818 191.32C322.314 190.84 322.562 190.128 322.562 189.184V188.704C322.274 188.848 321.89 188.992 321.41 189.136C320.946 189.28 320.41 189.352 319.802 189.352C319.002 189.352 318.266 189.224 317.594 188.968C316.938 188.712 316.37 188.336 315.89 187.84C315.426 187.344 315.058 186.728 314.786 185.992C314.53 185.24 314.402 184.376 314.402 183.4C314.402 182.488 314.538 181.648 314.81 180.88C315.098 180.112 315.506 179.456 316.034 178.912C316.578 178.368 317.234 177.944 318.002 177.64C318.77 177.336 319.642 177.184 320.618 177.184C321.562 177.184 322.458 177.256 323.306 177.4C324.154 177.544 324.874 177.696 325.466 177.856V188.728ZM329.161 177.856C329.721 177.696 330.449 177.544 331.345 177.4C332.241 177.256 333.233 177.184 334.321 177.184C335.345 177.184 336.201 177.328 336.889 177.616C337.577 177.888 338.121 178.28 338.521 178.792C338.937 179.288 339.225 179.896 339.385 180.616C339.561 181.32 339.648 182.096 339.648 182.944V190H336.745V183.4C336.745 182.728 336.697 182.16 336.601 181.696C336.521 181.216 336.377 180.832 336.169 180.544C335.977 180.24 335.705 180.024 335.353 179.896C335.017 179.752 334.601 179.68 334.105 179.68C333.737 179.68 333.353 179.704 332.953 179.752C332.553 179.8 332.257 179.84 332.065 179.872V190H329.161V177.856Z" fill="black"/>
<path id="Programming" d="M158.696 445.2C161.112 445.2 162.96 445.64 164.24 446.52C165.536 447.4 166.184 448.776 166.184 450.648C166.184 451.624 166.008 452.464 165.656 453.168C165.32 453.856 164.824 454.424 164.168 454.872C163.512 455.304 162.712 455.624 161.768 455.832C160.824 456.04 159.744 456.144 158.528 456.144H157.016V462H153.992V445.608C154.696 445.448 155.472 445.344 156.32 445.296C157.184 445.232 157.976 445.2 158.696 445.2ZM158.912 447.816C158.144 447.816 157.512 447.84 157.016 447.888V453.552H158.48C159.936 453.552 161.056 453.352 161.84 452.952C162.624 452.536 163.016 451.76 163.016 450.624C163.016 450.08 162.912 449.624 162.704 449.256C162.496 448.888 162.208 448.6 161.84 448.392C161.472 448.184 161.032 448.04 160.52 447.96C160.024 447.864 159.488 447.816 158.912 447.816ZM175.953 452.064C175.713 451.984 175.377 451.904 174.945 451.824C174.529 451.728 174.041 451.68 173.481 451.68C173.161 451.68 172.817 451.712 172.449 451.776C172.097 451.84 171.849 451.896 171.705 451.944V462H168.801V450.048C169.361 449.84 170.057 449.648 170.889 449.472C171.737 449.28 172.673 449.184 173.697 449.184C173.889 449.184 174.113 449.2 174.369 449.232C174.625 449.248 174.881 449.28 175.137 449.328C175.393 449.36 175.641 449.408 175.881 449.472C176.121 449.52 176.313 449.568 176.457 449.616L175.953 452.064ZM189.833 455.712C189.833 456.704 189.689 457.608 189.401 458.424C189.113 459.24 188.705 459.936 188.177 460.512C187.649 461.088 187.009 461.536 186.257 461.856C185.521 462.176 184.705 462.336 183.809 462.336C182.913 462.336 182.097 462.176 181.361 461.856C180.625 461.536 179.993 461.088 179.465 460.512C178.937 459.936 178.521 459.24 178.217 458.424C177.929 457.608 177.785 456.704 177.785 455.712C177.785 454.72 177.929 453.824 178.217 453.024C178.521 452.208 178.937 451.512 179.465 450.936C180.009 450.36 180.649 449.92 181.385 449.616C182.121 449.296 182.929 449.136 183.809 449.136C184.689 449.136 185.497 449.296 186.233 449.616C186.985 449.92 187.625 450.36 188.153 450.936C188.681 451.512 189.089 452.208 189.377 453.024C189.681 453.824 189.833 454.72 189.833 455.712ZM186.857 455.712C186.857 454.464 186.585 453.48 186.041 452.76C185.513 452.024 184.769 451.656 183.809 451.656C182.849 451.656 182.097 452.024 181.553 452.76C181.025 453.48 180.761 454.464 180.761 455.712C180.761 456.976 181.025 457.976 181.553 458.712C182.097 459.448 182.849 459.816 183.809 459.816C184.769 459.816 185.513 459.448 186.041 458.712C186.585 457.976 186.857 456.976 186.857 455.712ZM195.105 455.4C195.105 456.632 195.369 457.536 195.897 458.112C196.441 458.672 197.137 458.952 197.985 458.952C198.449 458.952 198.881 458.888 199.281 458.76C199.697 458.632 200.033 458.48 200.289 458.304V451.8C200.081 451.752 199.825 451.712 199.521 451.68C199.217 451.632 198.833 451.608 198.369 451.608C197.313 451.608 196.505 451.96 195.945 452.664C195.385 453.352 195.105 454.264 195.105 455.4ZM203.193 460.728C203.193 462.728 202.681 464.192 201.657 465.12C200.649 466.048 199.097 466.512 197.001 466.512C196.233 466.512 195.481 466.448 194.745 466.32C194.025 466.192 193.369 466.024 192.777 465.816L193.305 463.344C193.801 463.552 194.361 463.72 194.985 463.848C195.625 463.976 196.313 464.04 197.049 464.04C198.217 464.04 199.049 463.8 199.545 463.32C200.041 462.84 200.289 462.128 200.289 461.184V460.704C200.001 460.848 199.617 460.992 199.137 461.136C198.673 461.28 198.137 461.352 197.529 461.352C196.729 461.352 195.993 461.224 195.321 460.968C194.665 460.712 194.097 460.336 193.617 459.84C193.153 459.344 192.785 458.728 192.513 457.992C192.257 457.24 192.129 456.376 192.129 455.4C192.129 454.488 192.265 453.648 192.537 452.88C192.825 452.112 193.233 451.456 193.761 450.912C194.305 450.368 194.961 449.944 195.729 449.64C196.497 449.336 197.369 449.184 198.345 449.184C199.289 449.184 200.185 449.256 201.033 449.4C201.881 449.544 202.601 449.696 203.193 449.856V460.728ZM214.039 452.064C213.799 451.984 213.463 451.904 213.031 451.824C212.615 451.728 212.127 451.68 211.567 451.68C211.247 451.68 210.903 451.712 210.535 451.776C210.183 451.84 209.935 451.896 209.791 451.944V462H206.887V450.048C207.447 449.84 208.143 449.648 208.975 449.472C209.823 449.28 210.759 449.184 211.783 449.184C211.975 449.184 212.199 449.2 212.455 449.232C212.711 449.248 212.967 449.28 213.223 449.328C213.479 449.36 213.727 449.408 213.967 449.472C214.207 449.52 214.399 449.568 214.543 449.616L214.039 452.064ZM220.983 459.96C221.879 459.96 222.559 459.912 223.023 459.816V456.6C222.863 456.552 222.631 456.504 222.327 456.456C222.023 456.408 221.687 456.384 221.319 456.384C220.999 456.384 220.671 456.408 220.335 456.456C220.015 456.504 219.719 456.592 219.447 456.72C219.191 456.848 218.983 457.032 218.823 457.272C218.663 457.496 218.583 457.784 218.583 458.136C218.583 458.824 218.799 459.304 219.231 459.576C219.663 459.832 220.247 459.96 220.983 459.96ZM220.743 449.136C221.703 449.136 222.511 449.256 223.167 449.496C223.823 449.736 224.343 450.072 224.727 450.504C225.127 450.936 225.407 451.464 225.567 452.088C225.743 452.696 225.831 453.368 225.831 454.104V461.712C225.383 461.808 224.703 461.92 223.791 462.048C222.895 462.192 221.879 462.264 220.743 462.264C219.991 462.264 219.303 462.192 218.679 462.048C218.055 461.904 217.519 461.672 217.071 461.352C216.639 461.032 216.295 460.616 216.039 460.104C215.799 459.592 215.679 458.96 215.679 458.208C215.679 457.488 215.815 456.88 216.087 456.384C216.375 455.888 216.759 455.488 217.239 455.184C217.719 454.864 218.271 454.64 218.895 454.512C219.535 454.368 220.199 454.296 220.887 454.296C221.207 454.296 221.543 454.32 221.895 454.368C222.247 454.4 222.623 454.464 223.023 454.56V454.08C223.023 453.744 222.983 453.424 222.903 453.12C222.823 452.816 222.679 452.552 222.471 452.328C222.279 452.088 222.015 451.904 221.679 451.776C221.359 451.648 220.951 451.584 220.455 451.584C219.783 451.584 219.167 451.632 218.607 451.728C218.047 451.824 217.591 451.936 217.239 452.064L216.879 449.712C217.247 449.584 217.783 449.456 218.487 449.328C219.191 449.2 219.943 449.136 220.743 449.136ZM236.539 455.4C236.539 454.088 236.371 453.144 236.035 452.568C235.715 451.976 235.107 451.68 234.211 451.68C233.891 451.68 233.539 451.704 233.155 451.752C232.771 451.8 232.483 451.84 232.291 451.872V462H229.387V449.856C229.947 449.696 230.675 449.544 231.571 449.4C232.483 449.256 233.443 449.184 234.451 449.184C235.315 449.184 236.019 449.296 236.563 449.52C237.123 449.744 237.587 450.04 237.955 450.408C238.131 450.28 238.355 450.144 238.627 450C238.899 449.856 239.203 449.728 239.539 449.616C239.875 449.488 240.227 449.384 240.595 449.304C240.979 449.224 241.363 449.184 241.747 449.184C242.723 449.184 243.523 449.328 244.147 449.616C244.787 449.888 245.283 450.28 245.635 450.792C246.003 451.288 246.251 451.896 246.379 452.616C246.523 453.32 246.595 454.096 246.595 454.944V462H243.691V455.4C243.691 454.088 243.531 453.144 243.211 452.568C242.891 451.976 242.275 451.68 241.363 451.68C240.899 451.68 240.459 451.76 240.043 451.92C239.627 452.064 239.315 452.208 239.107 452.352C239.235 452.752 239.323 453.176 239.371 453.624C239.419 454.072 239.443 454.552 239.443 455.064V462H236.539V455.4ZM257.305 455.4C257.305 454.088 257.137 453.144 256.801 452.568C256.481 451.976 255.873 451.68 254.977 451.68C254.657 451.68 254.305 451.704 253.921 451.752C253.537 451.8 253.249 451.84 253.057 451.872V462H250.153V449.856C250.713 449.696 251.441 449.544 252.337 449.4C253.249 449.256 254.209 449.184 255.217 449.184C256.081 449.184 256.785 449.296 257.329 449.52C257.889 449.744 258.353 450.04 258.721 450.408C258.897 450.28 259.121 450.144 259.393 450C259.665 449.856 259.969 449.728 260.305 449.616C260.641 449.488 260.993 449.384 261.361 449.304C261.745 449.224 262.129 449.184 262.513 449.184C263.489 449.184 264.289 449.328 264.913 449.616C265.553 449.888 266.049 450.28 266.401 450.792C266.769 451.288 267.017 451.896 267.145 452.616C267.289 453.32 267.361 454.096 267.361 454.944V462H264.457V455.4C264.457 454.088 264.297 453.144 263.977 452.568C263.657 451.976 263.041 451.68 262.129 451.68C261.665 451.68 261.225 451.76 260.809 451.92C260.393 452.064 260.081 452.208 259.873 452.352C260.001 452.752 260.089 453.176 260.137 453.624C260.185 454.072 260.209 454.552 260.209 455.064V462H257.305V455.4ZM273.846 462H270.942V449.448H273.846V462ZM274.158 445.776C274.158 446.32 273.982 446.752 273.63 447.072C273.278 447.392 272.862 447.552 272.382 447.552C271.886 447.552 271.462 447.392 271.11 447.072C270.758 446.752 270.582 446.32 270.582 445.776C270.582 445.216 270.758 444.776 271.11 444.456C271.462 444.136 271.886 443.976 272.382 443.976C272.862 443.976 273.278 444.136 273.63 444.456C273.982 444.776 274.158 445.216 274.158 445.776ZM277.551 449.856C278.111 449.696 278.839 449.544 279.735 449.4C280.631 449.256 281.623 449.184 282.711 449.184C283.735 449.184 284.591 449.328 285.279 449.616C285.967 449.888 286.511 450.28 286.911 450.792C287.327 451.288 287.615 451.896 287.775 452.616C287.951 453.32 288.039 454.096 288.039 454.944V462H285.135V455.4C285.135 454.728 285.087 454.16 284.991 453.696C284.911 453.216 284.767 452.832 284.559 452.544C284.367 452.24 284.095 452.024 283.743 451.896C283.407 451.752 282.991 451.68 282.495 451.68C282.127 451.68 281.743 451.704 281.343 451.752C280.943 451.8 280.647 451.84 280.455 451.872V462H277.551V449.856ZM293.87 455.4C293.87 456.632 294.134 457.536 294.662 458.112C295.206 458.672 295.902 458.952 296.75 458.952C297.214 458.952 297.646 458.888 298.046 458.76C298.462 458.632 298.798 458.48 299.054 458.304V451.8C298.846 451.752 298.59 451.712 298.286 451.68C297.982 451.632 297.598 451.608 297.134 451.608C296.078 451.608 295.27 451.96 294.71 452.664C294.15 453.352 293.87 454.264 293.87 455.4ZM301.958 460.728C301.958 462.728 301.446 464.192 300.422 465.12C299.414 466.048 297.862 466.512 295.766 466.512C294.998 466.512 294.246 466.448 293.51 466.32C292.79 466.192 292.134 466.024 291.542 465.816L292.07 463.344C292.566 463.552 293.126 463.72 293.75 463.848C294.39 463.976 295.078 464.04 295.814 464.04C296.982 464.04 297.814 463.8 298.31 463.32C298.806 462.84 299.054 462.128 299.054 461.184V460.704C298.766 460.848 298.382 460.992 297.902 461.136C297.438 461.28 296.902 461.352 296.294 461.352C295.494 461.352 294.758 461.224 294.086 460.968C293.43 460.712 292.862 460.336 292.382 459.84C291.918 459.344 291.55 458.728 291.278 457.992C291.022 457.24 290.894 456.376 290.894 455.4C290.894 454.488 291.03 453.648 291.302 452.88C291.59 452.112 291.998 451.456 292.526 450.912C293.07 450.368 293.726 449.944 294.494 449.64C295.262 449.336 296.134 449.184 297.11 449.184C298.054 449.184 298.95 449.256 299.798 449.4C300.646 449.544 301.366 449.696 301.958 449.856V460.728Z" fill="black"/>
<defs>
<clipPath id="clip0_0:1">
<rect width="928.791" height="709" fill="white"/>
</clipPath>
</defs>
</svg>
